<svg width="32" height="26" viewBox="0 0 32 26" fill="none" xmlns="http://www.w3.org/2000/svg">
<g filter="url(#filter0_d_14_53)">
<path fill-rule="evenodd" clip-rule="evenodd" d="M22.2198 4.21934C22.3605 4.07889 22.5511 4 22.7498 4C22.9486 4 23.1392 4.07889 23.2798 4.21934L23.2818 4.22134L23.2848 4.22334L23.2918 4.23034L23.3118 4.25034L23.3738 4.31934C23.4238 4.37634 23.4938 4.45734 23.5748 4.56034C24.4988 5.76131 24.9998 7.23407 24.9998 8.74934C24.9998 10.2646 24.4988 11.7374 23.5748 12.9383C23.4911 13.0452 23.403 13.1486 23.3108 13.2483L23.2908 13.2683L23.2848 13.2753L23.2818 13.2773L23.2808 13.2783L22.7708 12.7703L23.2808 13.2803C23.1401 13.421 22.9493 13.5001 22.7503 13.5001C22.5514 13.5001 22.3605 13.421 22.2198 13.2803C22.0791 13.1396 22.0001 12.9488 22.0001 12.7498C22.0001 12.5509 22.0791 12.36 22.2198 12.2193L22.2188 12.2203L22.2168 12.2213L22.2218 12.2163L22.2548 12.1803C22.2868 12.1457 22.3332 12.09 22.3938 12.0133C23.0265 11.1875 23.4056 10.1956 23.4851 9.15834C23.5647 8.12105 23.3412 7.083 22.8418 6.17034C22.7115 5.93015 22.5616 5.70105 22.3938 5.48534C22.3395 5.41516 22.2822 5.34743 22.2218 5.28234L22.2168 5.27734C22.0774 5.1364 21.9994 4.94598 22 4.74772C22.0006 4.54946 22.0796 4.35949 22.2198 4.21934Z" fill="url(#paint0_linear_14_53)"/>
<path fill-rule="evenodd" clip-rule="evenodd" d="M20.1466 6.13853C20.2403 6.04982 20.3674 6 20.4999 6C20.6324 6 20.7595 6.04982 20.8533 6.13853L20.8546 6.13979L20.8566 6.14106L20.8613 6.14548L20.8746 6.15811L20.9159 6.20169C20.9493 6.23769 20.9959 6.28884 21.05 6.3539C21.666 7.1124 22 8.04255 22 8.99956C22 9.95657 21.666 10.8867 21.05 11.6452C20.9941 11.7127 20.9354 11.778 20.8739 11.841L20.8606 11.8536L20.8566 11.8581L20.8546 11.8593L20.8539 11.86L20.5139 11.5391L20.8539 11.8612C20.7601 11.9501 20.6329 12 20.5003 12C20.3676 12 20.2404 11.9501 20.1466 11.8612C20.0528 11.7724 20.0001 11.6518 20.0001 11.5262C20.0001 11.4005 20.0528 11.28 20.1466 11.1911L20.1459 11.1917L20.1446 11.1924L20.1479 11.1892L20.1699 11.1665C20.1912 11.1446 20.2221 11.1094 20.2626 11.061C20.6844 10.5394 20.9371 9.91299 20.9901 9.25787C21.0432 8.60275 20.8942 7.94714 20.5613 7.37073C20.4743 7.21903 20.3745 7.07434 20.2626 6.9381C20.2264 6.89378 20.1881 6.851 20.1479 6.80989L20.1446 6.80673C20.0516 6.71772 19.9996 6.59746 20 6.47224C20.0004 6.34702 20.0531 6.22704 20.1466 6.13853Z" fill="url(#paint1_linear_14_53)"/>
<path fill-rule="evenodd" clip-rule="evenodd" d="M23.72 0.865735C23.8606 0.725285 24.0512 0.646395 24.25 0.646395C24.4488 0.646395 24.6394 0.725285 24.78 0.865735L24.783 0.867735L24.786 0.870735L24.795 0.880735C24.8384 0.923491 24.8797 0.968205 24.919 1.01474C24.998 1.10374 25.107 1.23274 25.235 1.39974C25.492 1.73274 25.829 2.22274 26.164 2.85974C26.834 4.13374 27.5 6.00274 27.5 8.39574C27.5 10.7887 26.834 12.6577 26.164 13.9327C25.8971 14.4453 25.5863 14.9338 25.235 15.3927C25.0968 15.5724 24.95 15.7453 24.795 15.9107L24.785 15.9207L24.783 15.9237L24.781 15.9247L24.25 15.3957L24.78 15.9257C24.6386 16.0624 24.4492 16.1381 24.2525 16.1365C24.0559 16.1349 23.8678 16.0561 23.7286 15.9171C23.5895 15.7781 23.5105 15.59 23.5087 15.3934C23.5069 15.1967 23.5824 15.0073 23.719 14.8657L23.733 14.8517L23.796 14.7817C23.8553 14.7164 23.9387 14.6151 24.046 14.4777C24.258 14.2017 24.546 13.7847 24.836 13.2337C25.416 12.1337 26 10.5027 26 8.39574C26 6.28874 25.416 4.65774 24.836 3.55774C24.6083 3.12147 24.344 2.70531 24.046 2.31374C23.9468 2.18488 23.8424 2.06011 23.733 1.93974L23.719 1.92574C23.5785 1.78511 23.4997 1.59449 23.4997 1.39574C23.4997 1.19698 23.5795 1.00636 23.72 0.865735ZM15.787 0.291735C16.95 -0.475265 18.5 0.359735 18.5 1.75274V16.0387C18.5 17.4327 16.95 18.2667 15.787 17.4997L9.787 13.5447C9.74641 13.5177 9.69879 13.5031 9.65 13.5027H6.75C6.02065 13.5027 5.32118 13.213 4.80546 12.6973C4.28973 12.1816 4 11.4821 4 10.7527V7.03873C4 6.6776 4.07113 6.32 4.20933 5.98636C4.34753 5.65271 4.5501 5.34955 4.80546 5.09419C5.06082 4.83883 5.36398 4.63627 5.69762 4.49807C6.03127 4.35987 6.38886 4.28874 6.75 4.28874H9.65C9.69903 4.2889 9.74702 4.27464 9.788 4.24774L15.787 0.291735Z" fill="url(#paint2_linear_14_53)"/>
</g>
<defs>
<filter id="filter0_d_14_53" x="0" y="0" width="31.5" height="25.7916" filterUnits="userSpaceOnUse" color-interpolation-filters="sRGB">
<feFlood flood-opacity="0" result="BackgroundImageFix"/>
<feColorMatrix in="SourceAlpha" type="matrix" values="0 0 0 0 0 0 0 0 0 0 0 0 0 0 0 0 0 0 127 0" result="hardAlpha"/>
<feOffset dy="4"/>
<feGaussianBlur stdDeviation="2"/>
<feComposite in2="hardAlpha" operator="out"/>
<feColorMatrix type="matrix" values="0 0 0 0 0 0 0 0 0 0 0 0 0 0 0 0 0 0 0.3 0"/>
<feBlend mode="normal" in2="BackgroundImageFix" result="effect1_dropShadow_14_53"/>
<feBlend mode="normal" in="SourceGraphic" in2="effect1_dropShadow_14_53" result="shape"/>
</filter>
<linearGradient id="paint0_linear_14_53" x1="24.5531" y1="4.80095" x2="22.3974" y2="4.98991" gradientUnits="userSpaceOnUse">
<stop stop-color="#8B52F4"/>
<stop offset="1" stop-color="#EA71EF"/>
</linearGradient>
<linearGradient id="paint1_linear_14_53" x1="21.7021" y1="6.50586" x2="20.2662" y2="6.63873" gradientUnits="userSpaceOnUse">
<stop stop-color="#8B52F4"/>
<stop offset="1" stop-color="#EA71EF"/>
</linearGradient>
<linearGradient id="paint2_linear_14_53" x1="24" y1="1.5" x2="9" y2="7" gradientUnits="userSpaceOnUse">
<stop stop-color="#8B52F4"/>
<stop offset="1" stop-color="#EA71EF"/>
</linearGradient>
</defs>
</svg>
