<svg width="147" height="103" viewBox="0 0 147 103" fill="none" xmlns="http://www.w3.org/2000/svg">
<path d="M73.1122 16.46C61.9839 16.4487 50.9918 18.8657 40.9291 23.5367C30.8664 28.2078 21.9841 35.0162 14.9229 43.4709C14.2307 44.3257 13.3721 45.0365 12.3975 45.5617C11.4228 46.087 10.3515 46.4162 9.24602 46.5302C8.14055 46.6442 7.02305 46.5406 5.95872 46.2256C4.89438 45.9106 3.90451 45.3905 3.04683 44.6955C2.18916 44.0005 1.48086 43.1445 0.963237 42.1776C0.445617 41.2107 0.129044 40.1522 0.0319827 39.0637C-0.0650788 37.9753 0.0593141 36.8788 0.397906 35.8381C0.736498 34.7974 1.28251 33.8334 2.0041 33.0023C10.6359 22.6744 21.491 14.3573 33.7872 8.65045C46.0833 2.94362 59.5143 -0.0108262 73.1122 3.69077e-05C86.7114 -0.012044 100.144 2.94181 112.442 8.64869C124.739 14.3556 135.596 22.6733 144.229 33.0023C144.95 33.8334 145.496 34.7974 145.835 35.8381C146.173 36.8788 146.298 37.9753 146.201 39.0637C146.104 40.1522 145.787 41.2107 145.269 42.1776C144.752 43.1445 144.044 44.0005 143.186 44.6955C142.328 45.3905 141.338 45.9106 140.274 46.2256C139.21 46.5406 138.092 46.6442 136.987 46.5302C135.881 46.4162 134.81 46.087 133.835 45.5617C132.861 45.0365 132.002 44.3257 131.31 43.4709C124.248 35.0152 115.364 28.206 105.3 23.535C95.2355 18.8639 84.2418 16.4475 73.1122 16.46Z" fill="url(#paint0_radial_14_26)"/>
<path d="M33.3425 60.3589C38.0318 54.3766 44.0566 49.5333 50.9521 46.2028C57.8475 42.8723 65.4293 41.1436 73.1122 41.15C89.2879 41.15 103.68 48.6558 112.882 60.3589C114.256 62.0373 116.246 63.1189 118.423 63.3714C120.599 63.624 122.79 63.0272 124.525 61.7094C126.259 60.3915 127.398 58.4577 127.698 56.3232C127.997 54.1887 127.433 52.0239 126.127 50.2936C119.874 42.3217 111.842 35.8676 102.65 31.4286C93.4587 26.9896 83.3531 24.6842 73.1122 24.69C62.8705 24.682 52.7637 26.9855 43.5707 31.4231C34.3777 35.8607 26.344 42.3139 20.0888 50.2853C18.7298 52.013 18.1247 54.2005 18.4066 56.3667C18.6884 58.5329 19.8341 60.5003 21.5917 61.8361C23.3492 63.172 25.5747 63.7668 27.7784 63.4897C29.9821 63.2127 31.9836 62.0865 33.3425 60.3589Z" fill="url(#paint1_radial_14_26)"/>
<path d="M52.0803 77.0246C54.3641 73.589 57.4832 70.7671 61.1553 68.8143C64.8275 66.8614 68.937 65.8392 73.1122 65.84C81.9033 65.84 89.6396 70.276 94.144 77.0246C94.7465 77.9287 95.5243 78.7072 96.4329 79.3158C97.3416 79.9244 98.3632 80.3512 99.4396 80.5717C100.516 80.7921 101.626 80.8021 102.706 80.6008C103.787 80.3996 104.816 79.9912 105.736 79.399C106.656 78.8067 107.448 78.0422 108.067 77.149C108.686 76.2558 109.12 75.2516 109.344 74.1935C109.569 73.1354 109.579 72.0443 109.374 70.9824C109.169 69.9205 108.754 68.9086 108.151 68.0045C104.344 62.2835 99.1473 57.5848 93.0297 54.3331C86.9122 51.0815 80.0668 49.3792 73.1122 49.38C66.1575 49.3792 59.3122 51.0815 53.1946 54.3331C47.0771 57.5848 41.88 62.2835 38.073 68.0045C37.4705 68.9086 37.055 69.9205 36.8504 70.9824C36.6457 72.0443 36.6557 73.1354 36.88 74.1935C37.333 76.3304 38.631 78.2028 40.4885 79.399C42.346 80.5951 44.6108 81.0169 46.7847 80.5717C48.9586 80.1264 50.8635 78.8505 52.0803 77.0246Z" fill="url(#paint2_radial_14_26)"/>
<path d="M73.1122 102.875C76.443 102.875 79.6374 101.574 81.9926 99.2593C84.3478 96.9441 85.671 93.8041 85.671 90.53C85.671 87.2559 84.3478 84.1159 81.9926 81.8008C79.6374 79.4857 76.443 78.185 73.1122 78.185C69.7814 78.185 66.587 79.4857 64.2317 81.8008C61.8765 84.1159 60.5533 87.2559 60.5533 90.53C60.5533 93.8041 61.8765 96.9441 64.2317 99.2593C66.587 101.574 69.7814 102.875 73.1122 102.875Z" fill="url(#paint3_radial_14_26)"/>
<defs>
<radialGradient id="paint0_radial_14_26" cx="0" cy="0" r="1" gradientUnits="userSpaceOnUse" gradientTransform="translate(73.1122 90.53) rotate(-90) scale(90.53 128.526)">
<stop offset="0.114" stop-color="#8B52F4"/>
<stop offset="1" stop-color="#EA71EF"/>
</radialGradient>
<radialGradient id="paint1_radial_14_26" cx="0" cy="0" r="1" gradientUnits="userSpaceOnUse" gradientTransform="translate(73.1122 90.53) rotate(-90) scale(90.53 128.526)">
<stop offset="0.114" stop-color="#8B52F4"/>
<stop offset="1" stop-color="#EA71EF"/>
</radialGradient>
<radialGradient id="paint2_radial_14_26" cx="0" cy="0" r="1" gradientUnits="userSpaceOnUse" gradientTransform="translate(73.1122 90.53) rotate(-90) scale(90.53 128.526)">
<stop offset="0.114" stop-color="#8B52F4"/>
<stop offset="1" stop-color="#EA71EF"/>
</radialGradient>
<radialGradient id="paint3_radial_14_26" cx="0" cy="0" r="1" gradientUnits="userSpaceOnUse" gradientTransform="translate(73.1122 90.53) rotate(-90) scale(90.53 128.526)">
<stop offset="0.114" stop-color="#8B52F4"/>
<stop offset="1" stop-color="#EA71EF"/>
</radialGradient>
</defs>
</svg>
