<svg width="14" height="20" viewBox="0 0 14 20" fill="none" xmlns="http://www.w3.org/2000/svg">
<path fill-rule="evenodd" clip-rule="evenodd" d="M6 1.01162C6 0.179623 6.95 -0.295377 7.616 0.203623L13.493 4.61162C13.6296 4.71409 13.7405 4.84695 13.8169 4.99969C13.8932 5.15243 13.933 5.32085 13.933 5.49162C13.933 5.66239 13.8932 5.83082 13.8169 5.98356C13.7405 6.1363 13.6296 6.26916 13.493 6.37162L8.667 9.99162L13.493 13.6116C13.6296 13.7141 13.7405 13.8469 13.8169 13.9997C13.8932 14.1524 13.933 14.3209 13.933 14.4916C13.933 14.6624 13.8932 14.8308 13.8169 14.9836C13.7405 15.1363 13.6296 15.2692 13.493 15.3716L7.616 19.7796C7.46594 19.8922 7.28751 19.9607 7.1007 19.9775C6.91389 19.9944 6.72608 19.9589 6.55831 19.875C6.39055 19.7911 6.24945 19.6622 6.15084 19.5026C6.05223 19.3431 6 19.1592 6 18.9716V11.9916L1.6 15.2916C1.49494 15.3704 1.37539 15.4277 1.24818 15.4603C1.12097 15.4929 0.988581 15.5001 0.858579 15.4816C0.728577 15.463 0.603506 15.419 0.490507 15.3521C0.377508 15.2852 0.278793 15.1967 0.2 15.0916C0.121207 14.9866 0.063878 14.867 0.0312864 14.7398C-0.00130515 14.6126 -0.00852122 14.4802 0.0100505 14.3502C0.0286222 14.2202 0.072618 14.0951 0.139526 13.9821C0.206433 13.8691 0.294943 13.7704 0.4 13.6916L5.333 9.99162L0.4 6.29162C0.294943 6.21283 0.206433 6.11412 0.139526 6.00112C0.072618 5.88812 0.0286222 5.76305 0.0100505 5.63304C-0.00852122 5.50304 -0.00130515 5.37066 0.0312864 5.24344C0.063878 5.11623 0.121207 4.99668 0.2 4.89162C0.278793 4.78657 0.377508 4.69806 0.490507 4.63115C0.603506 4.56424 0.728577 4.52025 0.858579 4.50167C0.988581 4.4831 1.12097 4.49032 1.24818 4.52291C1.37539 4.5555 1.49494 4.61283 1.6 4.69162L6 7.99162V1.01162Z" fill="url(#paint0_linear_14_33)"/>
<defs>
<linearGradient id="paint0_linear_14_33" x1="6.9665" y1="0" x2="6.9665" y2="19.9816" gradientUnits="userSpaceOnUse">
<stop stop-color="#8B52F4"/>
<stop offset="1" stop-color="#EA71EF"/>
</linearGradient>
</defs>
</svg>
